<svg xmlns="http://www.w3.org/2000/svg" width="256" height="256" viewBox="0 0 100 100"><rect width="100" height="100" rx="50" fill="#4a90e2"></rect><path fill="#fff" d="M27.24 37.23L18.33 37.23L18.33 66.23Q18.06 66.33 17.49 66.47Q16.92 66.60 16.33 66.60L16.33 66.60Q13.95 66.60 13.95 64.61L13.95 64.61L13.95 37.23L3.86 37.23Q3.69 36.96 3.53 36.50Q3.37 36.04 3.37 35.45L3.37 35.45Q3.37 34.53 3.80 34.02Q4.23 33.50 5.04 33.50L5.04 33.50L28.43 33.50Q28.59 33.77 28.75 34.23Q28.91 34.69 28.91 35.23L28.91 35.23Q28.91 36.15 28.48 36.69Q28.05 37.23 27.24 37.23L27.24 37.23ZM55.48 37.23L46.57 37.23L46.57 66.23Q46.30 66.33 45.73 66.47Q45.17 66.60 44.57 66.60L44.57 66.60Q42.20 66.60 42.20 64.61L42.20 64.61L42.20 37.23L32.10 37.23Q31.94 36.96 31.77 36.50Q31.61 36.04 31.61 35.45L31.61 35.45Q31.61 34.53 32.04 34.02Q32.48 33.50 33.29 33.50L33.29 33.50L56.67 33.50Q56.83 33.77 56.99 34.23Q57.15 34.69 57.15 35.23L57.15 35.23Q57.15 36.15 56.72 36.69Q56.29 37.23 55.48 37.23L55.48 37.23ZM81.99 57.80L81.99 57.80Q81.62 58.07 81.00 58.29Q80.38 58.50 79.62 58.50L79.62 58.50Q78.75 58.50 78.08 58.23Q77.41 57.96 77.13 57.37L77.13 57.37Q74.22 51.32 72.11 46.30Q70.01 41.28 68.71 37.98L68.71 37.98L68.49 37.98Q68.33 42.03 68.14 45.52Q67.95 49.00 67.74 52.32Q67.52 55.64 67.31 59.04Q67.09 62.45 66.88 66.33L66.88 66.33Q66.55 66.44 66.04 66.55Q65.52 66.66 64.93 66.66L64.93 66.66Q63.74 66.66 63.26 66.17Q62.77 65.69 62.77 64.77L62.77 64.77Q62.77 64.23 62.85 62.45Q62.93 60.66 63.09 58.13Q63.26 55.59 63.45 52.51Q63.63 49.43 63.88 46.25Q64.12 43.06 64.36 39.98Q64.61 36.90 64.82 34.37L64.82 34.37Q65.25 33.99 66.06 33.66Q66.88 33.34 67.90 33.34L67.90 33.34Q70.38 33.34 71.36 35.34L71.36 35.34Q72.38 37.44 73.44 39.79Q74.49 42.14 75.54 44.57Q76.59 47.00 77.59 49.38Q78.59 51.75 79.51 53.91L79.51 53.91L79.73 53.91Q80.91 51.05 82.10 48.27Q83.29 45.49 84.42 42.90Q85.56 40.31 86.58 38.04Q87.61 35.77 88.42 33.88L88.42 33.88Q88.91 33.61 89.66 33.48Q90.42 33.34 91.07 33.34L91.07 33.34Q93.60 33.34 93.98 35.07L93.98 35.07Q94.20 36.04 94.47 38.28Q94.74 40.52 95.01 43.44Q95.28 46.35 95.52 49.70Q95.76 53.05 95.98 56.16Q96.20 59.26 96.36 61.88Q96.52 64.50 96.63 66.01L96.63 66.01Q95.66 66.66 94.36 66.66L94.36 66.66Q93.55 66.66 92.93 66.25Q92.31 65.85 92.20 64.77L92.20 64.77Q91.93 60.83 91.72 56.94Q91.50 53.05 91.31 49.54Q91.12 46.03 90.96 43.09Q90.80 40.14 90.69 38.09L90.69 38.09L90.47 38.09Q89.88 39.60 89.10 41.49Q88.31 43.38 87.26 45.76Q86.21 48.14 84.91 51.13Q83.61 54.13 81.99 57.80Z"></path></svg>